<svg version="1.1" id="Layer_1" xmlns="http://www.w3.org/2000/svg" xmlns:xlink="http://www.w3.org/1999/xlink" x="0px" y="0px"
	 width="72px" height="72px" viewBox="0 0 72 72" enable-background="new 0 0 72 72" xml:space="preserve">
	<defs><style>.csv-add-image{fill:#66d0c7;}</style></defs>
<g>
	<path class="csv-add-image" d="M61.568,4.5H10.432C6.604,4.5,3.5,7.604,3.5,11.432v49.136c0,3.828,3.104,6.933,6.932,6.933h51.136
		c3.828,0,6.932-3.104,6.932-6.933h0.001V11.432C68.501,7.604,65.396,4.5,61.568,4.5z M7.5,60.568v-9.591l14.159-20.253
		c0.437-0.625,1.046-1.002,1.716-1.061c0.677-0.067,1.337,0.206,1.876,0.745l12.44,12.439L22.319,63.501H10.432
		C8.813,63.501,7.5,62.188,7.5,60.568z M64.501,60.568c0,1.619-1.313,2.933-2.933,2.933H24.811l17.733-23.823
		c0.464-0.621,1.112-0.998,1.828-1.061c0.722-0.061,1.419,0.195,1.981,0.727l10.938,10.318c0.4,0.379,1.034,0.359,1.414-0.041
		c0.379-0.402,0.359-1.035-0.041-1.414L47.727,37.889c-0.984-0.928-2.242-1.38-3.531-1.264c-1.291,0.113-2.447,0.773-3.256,1.859
		l-2.041,2.742L26.666,28.994c-0.966-0.966-2.196-1.432-3.466-1.323c-1.27,0.111-2.4,0.789-3.18,1.907L7.5,47.487V11.432
		C7.5,9.813,8.813,8.5,10.432,8.5h51.136c1.619,0,2.932,1.313,2.932,2.932h0.001V60.568z"/>
	<path class="csv-add-image" d="M61.076,50.48c-0.401-0.379-1.035-0.36-1.413,0.039c-0.38,0.402-0.361,1.035,0.04,1.414l1.195,1.129
		c0.193,0.182,0.44,0.273,0.687,0.273c0.267,0,0.53-0.105,0.726-0.314c0.381-0.399,0.361-1.033-0.039-1.412L61.076,50.48z"/>
	<path class="csv-add-image" d="M44.771,12.372c-4.766,0-8.642,3.876-8.642,8.641c0,4.765,3.876,8.642,8.642,8.642c4.764,0,8.642-3.877,8.642-8.642
		C53.413,16.248,49.536,12.372,44.771,12.372z M44.771,27.656c-3.662,0-6.642-2.979-6.642-6.642s2.979-6.641,6.642-6.641
		s6.642,2.978,6.642,6.641S48.434,27.656,44.771,27.656z"/>
</g>
</svg>
