<svg xmlns="http://www.w3.org/2000/svg" viewBox="0 0 12.8 48"><defs><style>.menu-dots-1{fill:#bbbbbb;}</style></defs><g id="menu-dots-1" data-name="Menu dots"><g id="menu-dots" data-name="Menu dots"><path class="menu-dots-1" d="M6.4,12.8A6.4,6.4,0,1,0,0,6.4a6.41,6.41,0,0,0,6.4,6.4Zm0-11.2A4.8,4.8,0,1,1,1.6,6.4,4.8,4.8,0,0,1,6.4,1.6Z"/><path class="menu-dots-1" d="M6.4,35.2a6.4,6.4,0,1,0,6.4,6.4,6.41,6.41,0,0,0-6.4-6.4Zm0,11.2a4.8,4.8,0,1,1,4.8-4.8,4.8,4.8,0,0,1-4.8,4.8Z"/><path class="menu-dots-1" d="M6.4,17.6A6.4,6.4,0,1,0,12.8,24a6.41,6.41,0,0,0-6.4-6.4Zm0,11.2A4.8,4.8,0,1,1,11.2,24a4.8,4.8,0,0,1-4.8,4.8Z"/></g></g></svg>