<svg xmlns="http://www.w3.org/2000/svg" viewBox="0 0 32 32"><defs><style>.svg-box-icon-groups{fill:#000000;opacity:0.08;}</style></defs><g><g><path class="svg-box-icon-groups" d="M16,32A16,16,0,1,1,32,16,16,16,0,0,1,16,32ZM16,2A14,14,0,1,0,30,16,14,14,0,0,0,16,2Z"/><polygon class="svg-box-icon-groups" points="17.55 28.56 18.95 19.58 12.43 16.31 16.32 11.5 14.96 11.02 9.66 12.23 6.43 9.77 7.65 8.18 10.13 10.07 15.08 8.94 19.66 10.57 15.55 15.64 21.15 18.45 20.37 23.44 23.96 20.31 25.99 12.76 27.92 13.28 25.73 21.41 17.55 28.56"/><polygon class="svg-box-icon-groups" points="10.48 25.18 8.51 24.79 9.18 21.4 5.13 21 5.33 19 11.56 19.63 10.48 25.18"/></g></g></svg>