<svg xmlns="http://www.w3.org/2000/svg" viewBox="0 0 418.07 487.96"><defs><style>.svg-comment-arrow{fill:#cccccc;}</style></defs><g><g><path class="svg-comment-arrow" d="M180.67,4.9,3.07,220.4a13.43,13.43,0,0,0,10.4,22h93.6c3.8,104.6,40.7,176.5,109.8,213.9,59.6,32.2,130.2,31.9,176.9,31.6h10.8a13.57,13.57,0,0,0,13.1-10.1,13.17,13.17,0,0,0,.4-3.4,13.32,13.32,0,0,0-6.8-11.7c-128.7-73-134.9-133.1-135.2-220.2h93.3a13.41,13.41,0,0,0,12.2-7.8,13.7,13.7,0,0,0-1.8-14.4L201.57,4.9A13.59,13.59,0,0,0,191.17,0,13.8,13.8,0,0,0,180.67,4.9Zm160,210.5h-78.1a13.07,13.07,0,0,0-9.5,4,13.66,13.66,0,0,0-4,9.5c0,54.4,1.5,96.1,20.4,136.6,16.3,35,44,65.3,87.5,95.2-39.7-1.2-87.1-6.4-127.2-28.1-63.6-34.4-95.1-101-96-203.7a13.55,13.55,0,0,0-13.5-13.4H42.07L191.17,34.8Z"/></g></g></svg>