<svg xmlns="http://www.w3.org/2000/svg" viewBox="0 0 64 64"><defs><style>.svg-locked-1{fill:#e0995e;}.svg-locked-2{opacity:0.2;}.svg-locked-3{fill:#231f20;}.svg-locked-4{fill:#4f5d73;}.svg-locked-5{fill:#fff;}</style></defs><g><g><circle class="svg-locked-1" cx="32" cy="32" r="32"/><g class="svg-locked-2"><path class="svg-locked-3" d="M45.5,33.17h-5V25.83a8.5,8.5,0,0,0-17,0v7.34h-5V25.83a13.5,13.5,0,0,1,27,0Z"/></g><path class="svg-locked-4" d="M45.5,31.17h-5V23.83a8.5,8.5,0,0,0-17,0v7.34h-5V23.83a13.5,13.5,0,0,1,27,0Z"/><path class="svg-locked-4" d="M32,32a4,4,0,0,0-2,7.45V42a2,2,0,0,0,4,0V39.45A4,4,0,0,0,32,32Z"/><g class="svg-locked-2"><path class="svg-locked-3" d="M47,27H17a3,3,0,0,0-3,3V49a3,3,0,0,0,3,3H47a3,3,0,0,0,3-3V30A3,3,0,0,0,47,27ZM34,41.45V44a2,2,0,0,1-4,0V41.45a4,4,0,1,1,4,0Z"/></g><path class="svg-locked-5" d="M47,25H17a3,3,0,0,0-3,3V47a3,3,0,0,0,3,3H47a3,3,0,0,0,3-3V28A3,3,0,0,0,47,25ZM34,39.45V42a2,2,0,0,1-4,0V39.45a4,4,0,1,1,4,0Z"/></g></g></svg>