<svg xmlns="http://www.w3.org/2000/svg" viewBox="0 0 29.57 29.57"><defs><style>.svg-arrow-up-1{fill:#77b3d4;}.svg-arrow-up-2{opacity:0.2;}.svg-arrow-up-3{fill:#231f20;}.svg-arrow-up-4{fill:#fff;}</style></defs><g><g><circle class="svg-arrow-up-1" cx="14.79" cy="14.79" r="14.79"/><g class="svg-arrow-up-2"><path class="svg-arrow-up-3" d="M22.89,15.64l-6.6-8.38a1.83,1.83,0,0,0-3,0L6.69,15.64c-.83,1.06-.48,1.92.78,1.92h3.62V23.1A1.85,1.85,0,0,0,12.94,25h3.7a1.84,1.84,0,0,0,1.84-1.85V17.56h3.63C23.36,17.56,23.72,16.7,22.89,15.64Z"/></g><rect class="svg-arrow-up-4" x="11.09" y="9.24" width="7.39" height="14.79" rx="1.85"/><path class="svg-arrow-up-4" d="M7.47,16.64c-1.26,0-1.61-.87-.78-1.92l6.59-8.38a1.82,1.82,0,0,1,3,0l6.6,8.38c.83,1,.47,1.92-.78,1.92Z"/></g></g></svg>