<svg xmlns="http://www.w3.org/2000/svg" xmlns:xlink="http://www.w3.org/1999/xlink" viewBox="0 0 244.16 244.16"><defs><style>.svg-shape-1{fill:none;}.svg-shape-2{clip-path:url(#clip-path);}.svg-shape-3{fill:#f5f2c2;}</style><clipPath id="clip-path"><circle class="svg-shape-1" cx="122.2" cy="121.96" r="62.43"/></clipPath></defs><title>Zasób 4</title><g id="Warstwa_2" data-name="Warstwa 2"><g id="Warstwa_1-2" data-name="Warstwa 1"><g class="svg-shape-2"><rect class="svg-shape-3" x="61.17" y="-24.23" width="3.79" height="174.6" transform="translate(63.07 -26.13) rotate(45)"/><rect class="svg-shape-3" x="66.54" y="-18.86" width="3.79" height="174.6" transform="translate(68.44 -28.35) rotate(45)"/><rect class="svg-shape-3" x="71.9" y="-13.5" width="3.79" height="174.6" transform="translate(73.8 -30.57) rotate(45)"/><rect class="svg-shape-3" x="77.27" y="-8.14" width="3.79" height="174.6" transform="translate(79.16 -32.79) rotate(45)"/><rect class="svg-shape-3" x="88" y="2.59" width="3.79" height="174.6" transform="translate(89.89 -37.23) rotate(45)"/><rect class="svg-shape-3" x="98.72" y="13.32" width="3.79" height="174.6" transform="translate(100.62 -41.68) rotate(45)"/><rect class="svg-shape-3" x="109.45" y="24.05" width="3.79" height="174.6" transform="translate(111.35 -46.12) rotate(45)"/><rect class="svg-shape-3" x="120.18" y="34.78" width="3.79" height="174.6" transform="translate(122.08 -50.57) rotate(45)"/><rect class="svg-shape-3" x="130.91" y="45.51" width="3.79" height="174.6" transform="translate(132.81 -55.01) rotate(45)"/><rect class="svg-shape-3" x="141.64" y="56.24" width="3.79" height="174.6" transform="translate(143.54 -59.45) rotate(45)"/><rect class="svg-shape-3" x="152.37" y="66.96" width="3.79" height="174.6" transform="translate(154.26 -63.9) rotate(45)"/><rect class="svg-shape-3" x="163.1" y="77.69" width="3.79" height="174.6" transform="translate(164.99 -68.34) rotate(45)"/><rect class="svg-shape-3" x="168.46" y="83.06" width="3.79" height="174.6" transform="translate(170.36 -70.56) rotate(45)"/><rect class="svg-shape-3" x="173.83" y="88.42" width="3.79" height="174.6" transform="translate(175.72 -72.79) rotate(45)"/><rect class="svg-shape-3" x="179.19" y="93.79" width="3.79" height="174.6" transform="translate(181.09 -75.01) rotate(45)"/></g></g></g></svg>