<svg xmlns="http://www.w3.org/2000/svg" viewBox="0 0 1033.83 837.54"><defs><style>.svg-shape-3{fill:#d9f2f0;}</style></defs><g><g><path class="svg-shape-3" d="M1023.68,59.24c-54.4,54.38-114.3,50.65-162.42,47.66-42.88-2.67-76.76-4.78-109,27.47s-30.14,66.12-27.47,109c3,48.12,6.74,108-47.66,162.41s-114.27,50.65-162.39,47.65c-42.89-2.67-76.77-4.78-109,27.46s-30.12,66.1-27.45,109c3,48.12,6.74,108-47.64,162.39s-114.26,50.64-162.39,47.64c-42.89-2.68-76.76-4.78-109,27.46A34.7,34.7,0,0,1,10.16,778.3c54.39-54.39,114.27-50.65,162.4-47.65,42.89,2.68,76.76,4.79,109-27.46s30.13-66.1,27.46-109c-3-48.12-6.75-108,47.64-162.38s114.28-50.66,162.4-47.65c42.89,2.68,76.76,4.78,109-27.46s30.15-66.13,27.47-109c-3-48.13-6.73-108,47.66-162.41S817.46,34.64,865.58,37.63c42.88,2.67,76.76,4.78,109-27.47a34.7,34.7,0,0,1,49.08,49.08Z"/></g></g></svg>