<svg xmlns="http://www.w3.org/2000/svg" xmlns:xlink="http://www.w3.org/1999/xlink" viewBox="0 0 312.58 317.58"><defs><style>.svg-shape-1-1{fill:none;}.svg-shape-1-2{clip-path:url(#clip-path);}.svg-shape-1-3{fill:#f5f2c2;}</style><clipPath id="clip-path"><rect class="svg-shape-1-1" x="82.04" y="84.2" width="148.9" height="148.9" transform="translate(-43.72 60.79) rotate(-19.34)"/></clipPath></defs><g><g><g><rect class="svg-shape-1-3" x="71.35" y="-22.61" width="5.17" height="237.89" transform="translate(73.23 -25.1) rotate(37.17)"/><rect class="svg-shape-1-3" x="87.82" y="-10.12" width="5.17" height="237.89" transform="translate(84.13 -32.51) rotate(37.17)"/><rect class="svg-shape-1-3" x="104.29" y="2.37" width="5.17" height="237.89" transform="translate(95.02 -39.93) rotate(37.17)"/><rect class="svg-shape-1-3" x="120.76" y="14.87" width="5.17" height="237.89" transform="translate(105.92 -47.34) rotate(37.17)"/><rect class="svg-shape-1-3" x="137.23" y="27.36" width="5.17" height="237.89" transform="translate(116.81 -54.76) rotate(37.17)"/><rect class="svg-shape-1-3" x="153.7" y="39.85" width="5.17" height="237.89" transform="translate(127.71 -62.17) rotate(37.17)"/><rect class="svg-shape-1-3" x="170.18" y="52.34" width="5.17" height="237.89" transform="translate(138.6 -69.58) rotate(37.17)"/><rect class="svg-shape-1-3" x="186.65" y="64.83" width="5.17" height="237.89" transform="translate(149.5 -77) rotate(37.17)"/><rect class="svg-shape-1-3" x="203.12" y="77.32" width="5.17" height="237.89" transform="translate(160.39 -84.41) rotate(37.17)"/><rect class="svg-shape-1-3" x="219.59" y="89.81" width="5.17" height="237.89" transform="translate(171.28 -91.83) rotate(37.17)"/><rect class="svg-shape-1-3" x="236.06" y="102.3" width="5.17" height="237.89" transform="translate(182.18 -99.24) rotate(37.17)"/></g></g></g></svg>