<svg xmlns="http://www.w3.org/2000/svg" viewBox="0 0 67 55.5"><defs><style>.svg-eye{fill:#9dcac6;}</style></defs><g><g><path class="svg-eye" d="M33.5,55.5C21.73,55.5,0,46.63,0,34S21.73,12.5,33.5,12.5,67,21.37,67,34,45.27,55.5,33.5,55.5Zm0-39C22.39,16.5,4,24.68,4,34S22.39,51.5,33.5,51.5,63,43.32,63,34,44.61,16.5,33.5,16.5Z"/><path class="svg-eye" d="M33.5,44.67A10.5,10.5,0,1,1,44,34.17,10.51,10.51,0,0,1,33.5,44.67Zm0-19a8.5,8.5,0,1,0,8.5,8.5A8.51,8.51,0,0,0,33.5,25.67Z"/><path class="svg-eye" d="M29.57,31.56a1,1,0,0,1-.67-.27,1,1,0,0,1-.06-1.41,6.15,6.15,0,0,1,.64-.61,1,1,0,0,1,1.27,1.55,5.76,5.76,0,0,0-.44.41A1,1,0,0,1,29.57,31.56Z"/><path class="svg-eye" d="M33.5,40.5a6.34,6.34,0,0,1-6.33-6.33,1,1,0,0,1,2,0A4.33,4.33,0,0,0,33.5,38.5a1,1,0,0,1,0,2Z"/><path class="svg-eye" d="M33.38,10a2,2,0,0,1-2-2V2a2,2,0,1,1,4,0V8A2,2,0,0,1,33.38,10Z"/><path class="svg-eye" d="M21.85,10.68a2,2,0,0,1-1.78-1.1L18.21,5.9a2,2,0,1,1,3.58-1.8l1.85,3.68a2,2,0,0,1-.89,2.69A2,2,0,0,1,21.85,10.68Z"/><path class="svg-eye" d="M10.18,15.32a2,2,0,0,1-1.48-.67L6.1,11.76a2,2,0,1,1,3-2.67L11.67,12a2,2,0,0,1-.15,2.82A2,2,0,0,1,10.18,15.32Z"/><path class="svg-eye" d="M44.08,10.68a2.08,2.08,0,0,1-.9-.21,2,2,0,0,1-.88-2.69L44.15,4.1a2,2,0,1,1,3.57,1.8L45.87,9.58A2,2,0,0,1,44.08,10.68Z"/><path class="svg-eye" d="M55.75,15.32A2,2,0,0,1,54.26,12l2.6-2.89a2,2,0,0,1,3,2.67l-2.6,2.89A2,2,0,0,1,55.75,15.32Z"/></g></g></svg>