<svg xmlns="http://www.w3.org/2000/svg" viewBox="0 0 621.56 118.68"><defs><style>.rating-fill{fill:#b2b2b2;} .rating-empty{fill:#eeeeee;}</style></defs><g><g><path class="rating-empty" d="M562.34,2l15.81,37.43,40.48,3.48a3.19,3.19,0,0,1,1.82,5.59l-30.7,26.6,9.2,39.58a3.19,3.19,0,0,1-4.76,3.45l-34.79-21-34.79,21a3.19,3.19,0,0,1-4.75-3.45l9.2-39.58L498.35,48.44a3.19,3.19,0,0,1,1.82-5.59l40.48-3.48L556.46,2A3.19,3.19,0,0,1,562.34,2Z"/><path class="rating-empty" d="M438,2l15.81,37.43,40.48,3.48a3.19,3.19,0,0,1,1.82,5.59l-30.7,26.6,9.2,39.58a3.19,3.19,0,0,1-4.76,3.45l-34.79-21-34.79,21a3.19,3.19,0,0,1-4.75-3.45l9.2-39.58L374.05,48.44a3.19,3.19,0,0,1,1.82-5.59l40.48-3.48L432.16,2A3.19,3.19,0,0,1,438,2Z"/><path class="rating-empty" d="M313.74,2l15.81,37.43L370,42.86a3.19,3.19,0,0,1,1.82,5.59l-30.7,26.6,9.2,39.58a3.19,3.19,0,0,1-4.76,3.45l-34.79-21-34.79,21a3.19,3.19,0,0,1-4.75-3.45l9.2-39.58L249.75,48.44a3.19,3.19,0,0,1,1.82-5.59l40.48-3.48L307.86,2A3.19,3.19,0,0,1,313.74,2Z"/><path class="rating-fill" d="M189.44,2.08l15.81,37.43L245.73,43a3.19,3.19,0,0,1,1.82,5.58l-30.7,26.61,9.2,39.57a3.19,3.19,0,0,1-4.76,3.46l-34.79-21-34.79,21a3.19,3.19,0,0,1-4.75-3.46l9.2-39.57L125.45,48.57A3.19,3.19,0,0,1,127.27,43l40.48-3.48L183.56,2.08A3.19,3.19,0,0,1,189.44,2.08Z"/><path class="rating-fill" d="M65.1,2.08,80.91,39.51,121.39,43a3.19,3.19,0,0,1,1.82,5.58L92.5,75.18l9.21,39.57A3.2,3.2,0,0,1,97,118.21l-34.79-21-34.79,21a3.19,3.19,0,0,1-4.75-3.46l9.2-39.57L1.11,48.57A3.19,3.19,0,0,1,2.92,43L43.41,39.5,59.22,2.08A3.19,3.19,0,0,1,65.1,2.08Z"/></g></g></svg>